<svg width="32" height="32" viewBox="0 0 32 32" fill="none" xmlns="http://www.w3.org/2000/svg">
<path d="M0 10C0 4.47715 4.47715 0 10 0H22C27.5228 0 32 4.47715 32 10V22C32 27.5228 27.5228 32 22 32H10C4.47715 32 0 27.5228 0 22V10Z" fill="#4F46E5"/>
<path d="M10.6667 17.3333C10.5406 17.3337 10.4169 17.2983 10.31 17.2313C10.2032 17.1642 10.1176 17.0682 10.0631 16.9544C10.0087 16.8406 9.9876 16.7137 10.0024 16.5884C10.0172 16.4631 10.0673 16.3446 10.1467 16.2466L16.7467 9.44661C16.7963 9.38947 16.8637 9.35085 16.9381 9.3371C17.0124 9.32335 17.0892 9.33529 17.1559 9.37095C17.2226 9.40661 17.2751 9.46388 17.305 9.53335C17.3348 9.60283 17.3401 9.68038 17.3201 9.75328L16.0401 13.7666C16.0023 13.8676 15.9897 13.9763 16.0031 14.0833C16.0166 14.1903 16.0558 14.2924 16.1175 14.3809C16.1791 14.4694 16.2613 14.5416 16.3569 14.5914C16.4526 14.6412 16.5589 14.667 16.6667 14.6666H21.3334C21.4596 14.6662 21.5833 14.7016 21.6901 14.7686C21.797 14.8357 21.8826 14.9317 21.937 15.0455C21.9915 15.1593 22.0125 15.2862 21.9977 15.4115C21.9829 15.5368 21.9329 15.6553 21.8534 15.7533L15.2534 22.5533C15.2039 22.6104 15.1364 22.649 15.0621 22.6628C14.9877 22.6765 14.9109 22.6646 14.8443 22.6289C14.7776 22.5933 14.725 22.536 14.6952 22.4665C14.6654 22.3971 14.66 22.3195 14.6801 22.2466L15.9601 18.2333C15.9978 18.1323 16.0105 18.0236 15.997 17.9166C15.9835 17.8096 15.9443 17.7075 15.8827 17.619C15.8211 17.5305 15.7389 17.4583 15.6432 17.4085C15.5476 17.3587 15.4412 17.3329 15.3334 17.3333H10.6667Z" stroke="white" stroke-width="1.33333" stroke-linecap="round" stroke-linejoin="round"/>
</svg>
